<svg width="157" height="187" viewBox="0 0 157 187" fill="none" xmlns="http://www.w3.org/2000/svg">
<path id="Vector" d="M154.5 102.511L154.5 102.506C154.492 97.7263 152.894 93.0842 149.955 89.3099C147.017 85.5354 142.905 82.8428 138.265 81.6562L136.384 81.1753V79.2342V66.3279C136.376 58.9984 133.456 51.9708 128.264 46.7869C123.073 41.6029 116.033 38.686 108.689 38.6772H84.5384H82.0384V36.1772V6.02953C82.0384 5.09464 81.6665 4.19727 81.0033 3.53508C80.34 2.87276 79.4396 2.5 78.5 2.5H48.3107C40.9669 2.50877 33.9273 5.42567 28.7356 10.6097C23.5444 15.7932 20.6246 22.8202 20.6154 30.1491C20.6154 30.1497 20.6154 30.1502 20.6154 30.1507L20.6154 55.116V57.0532L18.7395 57.5368C13.6357 58.8527 9.18856 61.9818 6.23112 66.3367C3.27374 70.6914 2.00874 75.9731 2.67259 81.1918C3.33644 86.4106 5.88375 91.2093 9.83807 94.6879C13.7925 98.1667 18.8824 100.086 24.1539 100.086C29.4253 100.086 34.5153 98.1667 38.4697 94.6879C42.424 91.2093 44.9713 86.4106 45.6352 81.1918C46.299 75.9731 45.034 70.6914 42.0766 66.3367C39.1192 61.9818 34.672 58.8527 29.5682 57.5368L27.6923 57.0532V55.116V30.1477C27.6923 24.6861 29.8652 19.4489 33.7317 15.588C37.5981 11.7273 42.8413 9.55907 48.3077 9.55907H72.4615H74.9615V12.0591V139.53V141.467L73.0856 141.95C67.9818 143.266 63.5346 146.395 60.5772 150.75C57.6198 155.105 56.3548 160.387 57.0187 165.605C57.6825 170.824 60.2298 175.623 64.1842 179.101C68.1386 182.58 73.2285 184.5 78.5 184.5C83.7714 184.5 88.8613 182.58 92.8158 179.101C96.7701 175.623 99.3174 170.824 99.9812 165.605C100.645 160.387 99.3801 155.105 96.4227 150.75C93.4653 146.395 89.0181 143.266 83.9143 141.95L82.0384 141.467V139.53V48.2363V45.7363H84.5384H108.692C114.159 45.7363 119.402 47.9046 123.268 51.7653C127.135 55.6261 129.308 60.8633 129.308 66.3249V79.2342V81.1713L127.432 81.655C123.507 82.667 119.945 84.7586 117.153 87.6913C114.36 90.6239 112.448 94.28 111.634 98.2433C110.82 102.207 111.136 106.319 112.547 110.111C113.957 113.904 116.406 117.226 119.615 119.699C122.823 122.172 126.663 123.696 130.697 124.098C134.731 124.5 138.796 123.763 142.431 121.971C146.066 120.18 149.124 117.406 151.257 113.966C153.391 110.525 154.514 106.557 154.5 102.511Z" stroke="white" stroke-width="5"/>
</svg>
