<svg width="251" height="250" viewBox="0 0 251 250" fill="none" xmlns="http://www.w3.org/2000/svg">
<path d="M232.206 0.035194C193.756 -0.0727004 51.9385 0.108878 19.1597 0.035194C8.95976 0.035194 0.683472 8.05885 0.683472 17.9404V232.1C0.683472 241.984 8.95976 250 19.1597 250H232.206C242.411 250 250.682 241.984 250.682 232.097V17.9404C250.682 8.05885 242.411 0.035194 232.206 0.035194Z" fill="#0077B5"/>
<path d="M135.941 211.052V147.664C135.572 136.015 142.535 125.145 156.546 124.656C170.198 124.656 175.661 135.065 175.661 150.326V211.049H213.393V145.962C213.393 111.094 194.779 94.8697 169.951 94.8697C149.596 94.8697 140.656 106.244 135.689 113.993L135.941 97.5349H98.2091C98.7002 108.185 98.2065 211.052 98.2065 211.052H135.941ZM77.3204 161.826V97.5322H39.5832V211.049H77.3231C77.3151 199.13 77.3364 173.577 77.3204 161.826ZM58.4598 82.0376C71.6158 82.0376 79.8077 73.32 79.8077 62.4284C79.6989 36.1562 37.3242 36.4482 37.3587 62.4257C37.3295 73.4023 45.7471 82.1729 58.4598 82.0376Z" fill="#F1F1F1"/>
</svg>
